<?xml version="1.0" encoding="UTF-8" standalone="no"?>
<svg
   width="15"
   height="15"
   viewBox="0 0 15 15"
   version="1.1"
   id="svg148"
   sodipodi:docname="close.svg"
   inkscape:version="1.2 (dc2aeda, 2022-05-15)"
   xmlns:inkscape="http://www.inkscape.org/namespaces/inkscape"
   xmlns:sodipodi="http://sodipodi.sourceforge.net/DTD/sodipodi-0.dtd"
   xmlns="http://www.w3.org/2000/svg"
   xmlns:svg="http://www.w3.org/2000/svg">
  <sodipodi:namedview
     id="namedview150"
     pagecolor="#ffffff"
     bordercolor="#000000"
     borderopacity="0.25"
     inkscape:showpageshadow="2"
     inkscape:pageopacity="0.0"
     inkscape:pagecheckerboard="0"
     inkscape:deskcolor="#d1d1d1"
     showgrid="false"
     inkscape:zoom="3"
     inkscape:cx="-51.333333"
     inkscape:cy="10.833333"
     inkscape:window-width="1463"
     inkscape:window-height="1205"
     inkscape:window-x="1117"
     inkscape:window-y="120"
     inkscape:window-maximized="0"
     inkscape:current-layer="svg148" />
  <defs
     id="defs134">
    <style
       id="style132">.a,.c{fill:#fff;}.a{font-size:17px;font-family:ProximaNova-Bold, Proxima Nova;font-weight:700;}.b{fill:#cc7575;}</style>
  </defs>
  <g
     id="g146"
     transform="matrix(0.82562195,0,0,0.82562195,-1.1512439,-1.290774)">
    <g
       transform="translate(6,7.169)"
       id="g144">
      <circle
         class="b"
         cx="8.6020002"
         cy="8.6020002"
         r="8.6020002"
         transform="translate(-4,-5)"
         id="circle140" />
      <path
         class="c"
         d="m 400.633,622.452 -1.933,-1.932 1.932,-1.932 a 1.229,1.229 0 1 0 -1.724,-1.725 l -1.932,1.932 -1.932,-1.932 a 1.229,1.229 0 1 0 -1.725,1.724 l 1.932,1.932 -1.932,1.932 a 1.229,1.229 0 1 0 1.725,1.725 l 1.932,-1.932 1.932,1.932 a 1.229,1.229 0 1 0 1.725,-1.724 z"
         transform="translate(-392.375,-616.918)"
         id="path142" />
    </g>
  </g>
</svg>
