<?xml version="1.0" encoding="UTF-8" standalone="no"?>
<svg
   xmlns:dc="http://purl.org/dc/elements/1.1/"
   xmlns:cc="http://creativecommons.org/ns#"
   xmlns:rdf="http://www.w3.org/1999/02/22-rdf-syntax-ns#"
   xmlns:svg="http://www.w3.org/2000/svg"
   xmlns="http://www.w3.org/2000/svg"
   xmlns:sodipodi="http://sodipodi.sourceforge.net/DTD/sodipodi-0.dtd"
   xmlns:inkscape="http://www.inkscape.org/namespaces/inkscape"
   width="47mm"
   height="15mm"
   viewBox="0 0 47 15"
   version="1.1"
   id="svg1488"
   inkscape:version="1.0 (4035a4f, 2020-05-01)"
   sodipodi:docname="logo.svg">
  <defs
     id="defs1482" />
  <sodipodi:namedview
     id="base"
     pagecolor="#ffffff"
     bordercolor="#666666"
     borderopacity="1.0"
     inkscape:pageopacity="0.0"
     inkscape:pageshadow="2"
     inkscape:zoom="0.64681528"
     inkscape:cx="423.89562"
     inkscape:cy="111.77965"
     inkscape:document-units="mm"
     inkscape:current-layer="layer1"
     inkscape:document-rotation="0"
     showgrid="false"
     inkscape:window-width="1440"
     inkscape:window-height="785"
     inkscape:window-x="178"
     inkscape:window-y="25"
     inkscape:window-maximized="0" />
  <metadata
     id="metadata1485">
    <rdf:RDF>
      <cc:Work
         rdf:about="">
        <dc:format>image/svg+xml</dc:format>
        <dc:type
           rdf:resource="http://purl.org/dc/dcmitype/StillImage" />
        <dc:title></dc:title>
      </cc:Work>
    </rdf:RDF>
  </metadata>
  <g
     inkscape:label="Calque 1"
     inkscape:groupmode="layer"
     id="layer1"
     style="display:inline">
    <g
       aria-label="top6 best dating sites"
       id="text2053"
       style="font-style:normal;font-weight:normal;font-size:7.05556px;line-height:1.05;font-family:sans-serif;display:inline;fill:#000000;fill-opacity:1;stroke:none;stroke-width:0.264583"
       transform="translate(21.253037,-2.8526018)">
      <g
         style="font-size:10.5833px;line-height:1.25;font-family:Montserrat;-inkscape-font-specification:Montserrat;stroke-width:0.0700042"
         id="text860" />
      <g
         style="font-size:7.76111px;line-height:0.95;font-family:Montserrat;-inkscape-font-specification:Montserrat;fill:#f83f74;fill-opacity:1;stroke-width:0.0700042"
         id="text864"
         aria-label="top6best
datingsites">
        <path
           id="path81"
           style="fill:#3d1053;fill-opacity:1"
           d="m -17.109452,8.4856577 q -0.178505,0.1319389 -0.442383,0.2017889 -0.256117,0.062089 -0.543278,0.062089 -0.745066,0 -1.156405,-0.3802944 -0.403578,-0.3802944 -0.403578,-1.1175998 V 5.536436 h -0.644172 V 4.6051028 h 0.644172 V 3.5883974 h 1.210733 v 1.0167054 h 1.039989 V 5.536436 h -1.039989 v 1.6996831 q 0,0.2638777 0.131939,0.4113388 0.1397,0.1397 0.388056,0.1397 0.287161,0 0.48895,-0.1552222 z" />
        <path
           id="path83"
           style="fill:#3d1053;fill-opacity:1"
           d="m -14.571811,8.7495355 q -0.659695,0 -1.18745,-0.2716389 -0.519994,-0.2793999 -0.814917,-0.7683498 -0.294922,-0.48895 -0.294922,-1.1098387 0,-0.6208888 0.294922,-1.1098388 0.294923,-0.4889499 0.814917,-0.7605887 0.527755,-0.2794 1.18745,-0.2794 0.659694,0 1.179688,0.2794 0.519995,0.2716388 0.814917,0.7605887 0.294922,0.48895 0.294922,1.1098388 0,0.6208887 -0.294922,1.1098387 -0.294922,0.4889499 -0.814917,0.7683498 -0.519994,0.2716389 -1.179688,0.2716389 z m 0,-0.9934221 q 0.465666,0 0.760589,-0.3104444 0.302683,-0.3182055 0.302683,-0.8459609 0,-0.5277555 -0.302683,-0.8381999 -0.294923,-0.3182055 -0.760589,-0.3182055 -0.465667,0 -0.76835,0.3182055 -0.302683,0.3104444 -0.302683,0.8381999 0,0.5277554 0.302683,0.8459609 0.302683,0.3104444 0.76835,0.3104444 z" />
        <path
           id="path85"
           style="fill:#3d1053;fill-opacity:1"
           d="m -9.012553,4.4498806 q 0.5820833,0 1.055511,0.2716389 0.4811888,0.2638777 0.7528276,0.7528276 0.2716389,0.4811888 0.2716389,1.125361 0,0.6441721 -0.2716389,1.133122 -0.2716388,0.4811888 -0.7528276,0.7528276 -0.4734277,0.2638778 -1.055511,0.2638778 -0.7993943,0 -1.2573,-0.5044722 v 1.9480387 h -1.210733 V 4.5119695 h 1.156405 v 0.4811888 q 0.4501448,-0.5432777 1.311628,-0.5432777 z m -0.2095499,3.3062328 q 0.4656666,0 0.7605887,-0.3104444 0.3026833,-0.3182055 0.3026833,-0.8459609 0,-0.5277555 -0.3026833,-0.8381999 -0.2949221,-0.3182055 -0.7605887,-0.3182055 -0.4656666,0 -0.7683499,0.3182055 -0.2949222,0.3104444 -0.2949222,0.8381999 0,0.5277554 0.2949222,0.8459609 0.3026833,0.3104444 0.7683499,0.3104444 z" />
        <path
           id="path87"
           style="font-style:normal;font-variant:normal;font-weight:bold;font-stretch:normal;font-size:7.76111px;font-family:Montserrat;-inkscape-font-specification:'Montserrat Bold';fill:#f83f74;fill-opacity:1;stroke-width:0.0700042"
           d="m -3.7702869,5.2803194 q 0.5199944,0 0.9468554,0.2095499 0.4268611,0.20955 0.6752166,0.5976055 0.2483555,0.3802944 0.2483555,0.8847665 0,0.5432777 -0.2716388,0.9546165 -0.2716389,0.4113389 -0.7450666,0.636411 -0.4656666,0.2173111 -1.0399887,0.2173111 -1.1408831,0 -1.7850553,-0.6984999 -0.6441721,-0.6984999 -0.6441721,-1.9946052 0,-0.9235721 0.34925,-1.5832664 0.3492499,-0.6596943 0.9701387,-1.0011832 0.6286499,-0.3414888 1.4513275,-0.3414888 0.4346222,0 0.8304388,0.1008944 0.4035777,0.093133 0.6829776,0.2716389 l -0.4656665,0.923572 q -0.4035778,-0.2716388 -1.0167054,-0.2716388 -0.6907388,0 -1.0943165,0.4035777 -0.4035777,0.4035777 -0.4346222,1.1719276 0.4811888,-0.4811888 1.342672,-0.4811888 z m -0.2561166,2.5611662 q 0.4035777,0 0.6519332,-0.2173111 0.2561167,-0.217311 0.2561167,-0.5898443 0,-0.3725333 -0.2561167,-0.5898443 -0.2483555,-0.2250722 -0.6674554,-0.2250722 -0.4113388,0 -0.6752166,0.2328333 -0.2638777,0.2250721 -0.2638777,0.5820832 0,0.3570111 0.2561166,0.5820832 0.2561166,0.2250722 0.6984999,0.2250722 z" />
        <path
           id="path89"
           style="fill:#3d1053;fill-opacity:1"
           d="m 1.2800124,4.4498806 q 0.5820832,0 1.0555109,0.2716389 0.4811888,0.2638777 0.7528277,0.7528276 0.2716388,0.4811888 0.2716388,1.125361 0,0.6441721 -0.2716388,1.133122 -0.2716389,0.4811888 -0.7528277,0.7528276 -0.4734277,0.2638778 -1.0555109,0.2638778 -0.86148321,0 -1.31162758,-0.5432777 V 8.6874466 H -1.1880205 V 2.9287031 H 0.02271259 V 4.9543528 Q 0.48061807,4.4498806 1.2800124,4.4498806 Z m -0.20955,3.3062328 q 0.4656666,0 0.7605888,-0.3104444 0.3026833,-0.3182055 0.3026833,-0.8459609 0,-0.5277555 -0.3026833,-0.8381999 Q 1.536129,5.4433027 1.0704624,5.4433027 q -0.46566657,0 -0.76834985,0.3182055 -0.29492218,0.3104444 -0.29492218,0.8381999 0,0.5277554 0.29492218,0.8459609 0.30268328,0.3104444 0.76834985,0.3104444 z" />
        <path
           id="path91"
           style="fill:#3d1053;fill-opacity:1"
           d="m 8.253006,6.6152303 q 0,0.023283 -0.023283,0.3259666 H 5.0709509 q 0.085372,0.3880555 0.4035777,0.6131277 0.3182056,0.2250721 0.7916333,0.2250721 0.3259666,0 0.5743221,-0.093133 Q 7.0966006,7.585369 7.3139117,7.375819 l 0.6441721,0.6984999 q -0.5898444,0.6752166 -1.7229664,0.6752166 -0.706261,0 -1.2495387,-0.2716389 Q 4.442301,8.1984967 4.1473789,7.7095468 3.8524567,7.2205968 3.8524567,6.5997081 q 0,-0.6131277 0.2871611,-1.1020776 0.2949221,-0.4967111 0.7993943,-0.7683499 0.5122332,-0.2794 1.1408831,-0.2794 0.6131277,0 1.1098387,0.2638778 Q 7.686445,4.9776361 7.9658449,5.4743471 8.253006,5.963297 8.253006,6.6152303 Z M 6.0876563,5.3656916 q -0.4113388,0 -0.6907387,0.2328333 -0.2794,0.2328333 -0.3414889,0.636411 H 7.1121228 Q 7.0500339,5.8391193 6.770634,5.606286 6.491234,5.3656916 6.0876563,5.3656916 Z" />
        <path
           id="path93"
           style="fill:#3d1053;fill-opacity:1"
           d="m 10.463832,8.7495355 q -0.5199947,0 -1.0167058,-0.1241778 Q 8.9504152,8.4934188 8.655493,8.2993911 L 9.0590708,7.4301468 q 0.2793999,0.1785055 0.6752165,0.2949222 0.3958167,0.1086555 0.7761107,0.1086555 0.76835,0 0.76835,-0.3802944 0,-0.1785055 -0.20955,-0.2561166 Q 10.859648,7.1197024 10.425026,7.0653746 9.9127928,6.9877635 9.5790651,6.8868691 9.2453374,6.7859747 8.9969819,6.5298581 8.7563875,6.2737414 8.7563875,5.8003137 q 0,-0.3958166 0.2250722,-0.6984998 Q 9.2142929,4.7913695 9.6489151,4.620625 10.091298,4.4498806 10.688904,4.4498806 q 0.442383,0 0.877005,0.1008945 0.442383,0.093133 0.729545,0.2638777 L 11.891876,5.676136 q -0.551039,-0.3104444 -1.202972,-0.3104444 -0.388056,0 -0.582083,0.1086555 -0.1940282,0.1086556 -0.1940282,0.2794 0,0.1940277 0.2095502,0.2716388 0.20955,0.077611 0.667455,0.1474611 0.512233,0.085372 0.8382,0.1862666 0.325967,0.093133 0.566561,0.34925 0.240595,0.2561166 0.240595,0.7140221 0,0.3880555 -0.232834,0.6907388 -0.232833,0.3026833 -0.682977,0.4734277 -0.442384,0.1629833 -1.055511,0.1629833 z" />
        <path
           id="path95"
           style="fill:#3d1053;fill-opacity:1"
           d="m 15.875267,8.4856577 q -0.178506,0.1319389 -0.442384,0.2017889 -0.256116,0.062089 -0.543277,0.062089 -0.745067,0 -1.156406,-0.3802944 Q 13.329623,7.9889467 13.329623,7.2516413 V 5.536436 H 12.68545 V 4.6051028 h 0.644173 V 3.5883974 h 1.210733 v 1.0167054 h 1.039988 V 5.536436 h -1.039988 v 1.6996831 q 0,0.2638777 0.131939,0.4113388 0.1397,0.1397 0.388055,0.1397 0.287161,0 0.48895,-0.1552222 z" />
        <path
           id="path97"
           style="font-style:normal;font-variant:normal;font-weight:bold;font-stretch:normal;font-size:7.76111px;font-family:Montserrat;-inkscape-font-specification:'Montserrat Bold';fill:#f83f74;fill-opacity:1;stroke-width:0.0700042"
           d="m -15.549469,10.301757 v 5.758744 h -1.156405 v -0.481189 q -0.450144,0.543278 -1.303866,0.543278 -0.589845,0 -1.071034,-0.263878 -0.473427,-0.263878 -0.745066,-0.752828 -0.271639,-0.48895 -0.271639,-1.133122 0,-0.644172 0.271639,-1.133122 0.271639,-0.48895 0.745066,-0.752827 0.481189,-0.263878 1.071034,-0.263878 0.799394,0 1.249538,0.504472 v -2.02565 z m -2.250721,4.827411 q 0.457905,0 0.760588,-0.310445 0.302684,-0.318205 0.302684,-0.845961 0,-0.527755 -0.302684,-0.8382 -0.302683,-0.318205 -0.760588,-0.318205 -0.465667,0 -0.76835,0.318205 -0.302684,0.310445 -0.302684,0.8382 0,0.527756 0.302684,0.845961 0.302683,0.310445 0.76835,0.310445 z" />
        <path
           id="path99"
           style="font-style:normal;font-variant:normal;font-weight:bold;font-stretch:normal;font-size:7.76111px;font-family:Montserrat;-inkscape-font-specification:'Montserrat Bold';fill:#f83f74;fill-opacity:1;stroke-width:0.0700042"
           d="m -12.752316,11.822935 q 0.970139,0 1.490133,0.465666 0.519994,0.457906 0.519994,1.389239 v 2.382661 h -1.133122 v -0.519995 q -0.341489,0.582084 -1.272822,0.582084 -0.481189,0 -0.8382,-0.162984 -0.34925,-0.162983 -0.535516,-0.450144 -0.186267,-0.287161 -0.186267,-0.651933 0,-0.582083 0.434622,-0.915811 0.442384,-0.333728 1.358195,-0.333728 h 0.962377 q 0,-0.395816 -0.240594,-0.605366 -0.240595,-0.217312 -0.721783,-0.217312 -0.333728,0 -0.659695,0.108656 -0.318205,0.100894 -0.543278,0.2794 l -0.434622,-0.845961 q 0.341489,-0.240594 0.814917,-0.372533 0.481189,-0.131939 0.985661,-0.131939 z m -0.09313,3.484738 q 0.310445,0 0.551039,-0.1397 0.240595,-0.147461 0.341489,-0.426861 v -0.426861 h -0.830439 q -0.745066,0 -0.745066,0.48895 0,0.232833 0.178505,0.372533 0.186267,0.131939 0.504472,0.131939 z" />
        <path
           id="path101"
           style="font-style:normal;font-variant:normal;font-weight:bold;font-stretch:normal;font-size:7.76111px;font-family:Montserrat;-inkscape-font-specification:'Montserrat Bold';fill:#f83f74;fill-opacity:1;stroke-width:0.0700042"
           d="m -6.9533123,15.858712 q -0.1785056,0.131939 -0.4423833,0.201789 -0.2561166,0.06209 -0.5432777,0.06209 -0.7450665,0 -1.1564054,-0.380295 -0.4035777,-0.380294 -0.4035777,-1.117599 V 12.90949 h -0.6441716 v -0.931333 h 0.6441716 v -1.016705 h 1.2107332 v 1.016705 h 1.0399887 v 0.931333 h -1.0399887 v 1.699683 q 0,0.263878 0.1319388,0.411339 0.1397,0.1397 0.3880555,0.1397 0.2871611,0 0.4889499,-0.155222 z" />
        <path
           id="path103"
           style="font-style:normal;font-variant:normal;font-weight:bold;font-stretch:normal;font-size:7.76111px;font-family:Montserrat;-inkscape-font-specification:'Montserrat Bold';fill:#f83f74;fill-opacity:1;stroke-width:0.0700042"
           d="m -6.2660902,11.885024 h 1.2107331 v 4.175477 h -1.2107331 z m 0.6053665,-0.582083 q -0.3337277,0 -0.5432777,-0.194028 -0.2095499,-0.194028 -0.2095499,-0.481189 0,-0.287161 0.2095499,-0.481189 0.20955,-0.1940276 0.5432777,-0.1940276 0.3337278,0 0.5432777,0.1862666 0.20955,0.186267 0.20955,0.465667 0,0.302683 -0.20955,0.504472 -0.2095499,0.194028 -0.5432777,0.194028 z" />
        <path
           id="path105"
           style="font-style:normal;font-variant:normal;font-weight:bold;font-stretch:normal;font-size:7.76111px;font-family:Montserrat;-inkscape-font-specification:'Montserrat Bold';fill:#f83f74;fill-opacity:1;stroke-width:0.0700042"
           d="m -1.393811,11.822935 q 0.77611103,0 1.24953873,0.465666 0.48118881,0.465667 0.48118881,1.381478 v 2.390422 h -1.21073313 v -2.204155 q 0,-0.496711 -0.21731111,-0.737306 -0.217311,-0.248355 -0.6286499,-0.248355 -0.4579054,0 -0.7295443,0.287161 -0.2716388,0.2794 -0.2716388,0.8382 v 2.064455 h -1.2107332 v -4.175477 h 1.1564054 v 0.48895 q 0.2405944,-0.263878 0.5976055,-0.403578 0.357011,-0.147461 0.783872,-0.147461 z" />
        <path
           id="path107"
           style="font-style:normal;font-variant:normal;font-weight:bold;font-stretch:normal;font-size:7.76111px;font-family:Montserrat;-inkscape-font-specification:'Montserrat Bold';fill:#f83f74;fill-opacity:1;stroke-width:0.0700042"
           d="m 5.7872783,11.885024 v 3.476977 q 0,1.148644 -0.5976054,1.707444 -0.5976055,0.5588 -1.7462497,0.5588 -0.6053666,0 -1.1486443,-0.147461 Q 1.7515012,17.333323 1.3944902,17.053923 L 1.875679,16.184679 q 0.2638777,0.217311 0.6674554,0.341488 0.4035777,0.131939 0.8071554,0.131939 0.6286499,0 0.9235721,-0.287161 0.3026833,-0.2794 0.3026833,-0.853722 v -0.178505 q -0.4734277,0.519994 -1.3193887,0.519994 -0.5743221,0 -1.0555109,-0.248356 Q 1.7282179,15.35424 1.4488179,14.896334 1.169418,14.438429 1.169418,13.840823 q 0,-0.597605 0.2793999,-1.055511 0.2794,-0.457905 0.7528277,-0.706261 0.4811888,-0.256116 1.0555109,-0.256116 0.9080499,0 1.3814776,0.597605 V 11.885024 Z M 3.4977509,14.86529 q 0.4811888,0 0.7838721,-0.2794 0.3104444,-0.287161 0.3104444,-0.745067 0,-0.457905 -0.3104444,-0.737305 -0.3026833,-0.287161 -0.7838721,-0.287161 -0.4811888,0 -0.7916332,0.287161 -0.3104444,0.2794 -0.3104444,0.737305 0,0.457906 0.3104444,0.745067 0.3104444,0.2794 0.7916332,0.2794 z" />
        <path
           id="path109"
           style="fill:#3d1053;fill-opacity:1"
           d="m 8.3113372,16.12259 q -0.5199944,0 -1.0167054,-0.124178 -0.496711,-0.131939 -0.7916332,-0.325967 l 0.4035777,-0.869244 q 0.2794,0.178506 0.6752166,0.294922 0.3958166,0.108656 0.776111,0.108656 0.7683498,0 0.7683498,-0.380295 0,-0.178505 -0.2095499,-0.256116 -0.20955,-0.07761 -0.6441721,-0.131939 Q 7.7602984,14.360818 7.4265707,14.259923 7.092843,14.159029 6.8444874,13.902912 6.603893,13.646796 6.603893,13.173368 q 0,-0.395817 0.2250722,-0.6985 0.2328333,-0.310444 0.6674555,-0.481189 0.4423832,-0.170744 1.0399887,-0.170744 0.4423832,0 0.8770054,0.100894 0.4423833,0.09313 0.7295442,0.263878 L 9.7393814,13.04919 q -0.5510388,-0.310444 -1.202972,-0.310444 -0.3880555,0 -0.5820833,0.108655 -0.1940277,0.108656 -0.1940277,0.2794 0,0.194028 0.20955,0.271639 0.2095499,0.07761 0.6674554,0.147461 0.5122333,0.08537 0.8381999,0.186267 0.3259666,0.09313 0.5665613,0.34925 0.240594,0.256116 0.240594,0.714022 0,0.388055 -0.232833,0.690739 -0.2328335,0.302683 -0.6829779,0.473427 -0.4423832,0.162984 -1.0555109,0.162984 z" />
        <path
           id="path111"
           style="fill:#3d1053;fill-opacity:1"
           d="m 11.029665,11.885024 h 1.210733 v 4.175477 h -1.210733 z m 0.605367,-0.582083 q -0.333728,0 -0.543278,-0.194028 -0.20955,-0.194028 -0.20955,-0.481189 0,-0.287161 0.20955,-0.481189 0.20955,-0.1940276 0.543278,-0.1940276 0.333727,0 0.543277,0.1862666 0.20955,0.186267 0.20955,0.465667 0,0.302683 -0.20955,0.504472 -0.20955,0.194028 -0.543277,0.194028 z" />
        <path
           id="path113"
           style="fill:#3d1053;fill-opacity:1"
           d="m 16.057167,15.858712 q -0.178506,0.131939 -0.442384,0.201789 -0.256116,0.06209 -0.543277,0.06209 -0.745067,0 -1.156406,-0.380295 -0.403577,-0.380294 -0.403577,-1.117599 V 12.90949 H 12.86735 v -0.931333 h 0.644173 v -1.016705 h 1.210733 v 1.016705 h 1.039988 v 0.931333 h -1.039988 v 1.699683 q 0,0.263878 0.131939,0.411339 0.1397,0.1397 0.388055,0.1397 0.287161,0 0.48895,-0.155222 z" />
        <path
           id="path115"
           style="fill:#3d1053;fill-opacity:1"
           d="m 20.698067,13.988285 q 0,0.02328 -0.02328,0.325966 h -3.158771 q 0.08537,0.388056 0.403577,0.613128 0.318206,0.225072 0.791634,0.225072 0.325966,0 0.574322,-0.09313 0.256116,-0.100895 0.473427,-0.310445 l 0.644173,0.6985 q -0.589845,0.675217 -1.722967,0.675217 -0.706261,0 -1.249539,-0.271639 -0.543277,-0.2794 -0.838199,-0.76835 -0.294923,-0.48895 -0.294923,-1.109839 0,-0.613127 0.287161,-1.102077 0.294923,-0.496711 0.799395,-0.76835 0.512233,-0.2794 1.140883,-0.2794 0.613128,0 1.109839,0.263878 0.496711,0.263877 0.776111,0.760588 0.287161,0.48895 0.287161,1.140884 z m -2.16535,-1.249539 q -0.411339,0 -0.690739,0.232833 -0.2794,0.232833 -0.341489,0.636411 h 2.056695 q -0.06209,-0.395816 -0.341489,-0.62865 -0.2794,-0.240594 -0.682978,-0.240594 z" />
        <path
           id="path117"
           style="fill:#3d1053;fill-opacity:1"
           d="m 22.908894,16.12259 q -0.519994,0 -1.016705,-0.124178 -0.496711,-0.131939 -0.791633,-0.325967 l 0.403577,-0.869244 q 0.2794,0.178506 0.675217,0.294922 0.395817,0.108656 0.776111,0.108656 0.76835,0 0.76835,-0.380295 0,-0.178505 -0.20955,-0.256116 -0.20955,-0.07761 -0.644172,-0.131939 -0.512234,-0.07761 -0.845961,-0.178506 -0.333728,-0.100894 -0.582083,-0.357011 -0.240595,-0.256116 -0.240595,-0.729544 0,-0.395817 0.225072,-0.6985 0.232834,-0.310444 0.667456,-0.481189 0.442383,-0.170744 1.039988,-0.170744 0.442384,0 0.877006,0.100894 0.442383,0.09313 0.729544,0.263878 l -0.403578,0.861483 q -0.551038,-0.310444 -1.202972,-0.310444 -0.388055,0 -0.582083,0.108655 -0.194028,0.108656 -0.194028,0.2794 0,0.194028 0.20955,0.271639 0.20955,0.07761 0.667456,0.147461 0.512233,0.08537 0.8382,0.186267 0.325966,0.09313 0.566561,0.34925 0.240594,0.256116 0.240594,0.714022 0,0.388055 -0.232833,0.690739 -0.232833,0.302683 -0.682978,0.473427 -0.442383,0.162984 -1.055511,0.162984 z" />
      </g>
    </g>
    <path
       fill="#f83f74"
       d="M 45.310487,1.860315 C 45.000532,0.96337683 43.99436,0.53050973 43.30175,0.74247343 42.93336,0.85526403 42.625476,1.075635 42.340032,1.4321845 42.054531,1.075635 41.746657,0.85526483 41.378258,0.74247343 40.685704,0.53045073 39.679476,0.96337683 39.369517,1.860315 c -0.20172,0.5837893 -0.169924,1.1585181 0.09448,1.7082023 0.282062,0.5866322 0.766383,0.98806 1.198178,1.3182018 0.09104,0.069629 0.182894,0.1384874 0.274552,0.2072271 0.437666,0.3281293 0.85105,0.6380823 1.174501,1.0235836 0.04483,0.053523 0.109386,0.086981 0.178985,0.092898 0.0068,6.189e-4 0.01478,9.437e-4 0.02214,9.437e-4 0.0092,0 0.01856,-6.197e-4 0.02773,-0.00157 0.0092,9.437e-4 0.01847,0.00157 0.02774,0.00157 0.0068,0 0.0148,-3.633e-4 0.02214,-9.437e-4 0.06972,-0.00598 0.134105,-0.039321 0.178985,-0.092898 0.323454,-0.3855013 0.736845,-0.6954543 1.174499,-1.0235836 0.09161,-0.06874 0.183491,-0.1375996 0.274553,-0.2072271 0.431809,-0.3301418 0.916117,-0.7315696 1.198193,-1.3182018 0.264357,-0.5496842 0.296094,-1.124413 0.09436,-1.7082023 z"
       id="path146"
       style="stroke-width:0.0592078" />
  </g>
</svg>
