<?xml version="1.0" encoding="UTF-8" standalone="no"?>
<svg
   viewBox="0 0 350 100"
   class="logo-image"
   version="1.1"
   id="svg830"
   sodipodi:docname="amolatina.svg"
   inkscape:version="1.2 (dc2aeda, 2022-05-15)"
   width="350"
   height="100"
   xmlns:inkscape="http://www.inkscape.org/namespaces/inkscape"
   xmlns:sodipodi="http://sodipodi.sourceforge.net/DTD/sodipodi-0.dtd"
   xmlns="http://www.w3.org/2000/svg"
   xmlns:svg="http://www.w3.org/2000/svg">
  <defs
     id="defs834" />
  <sodipodi:namedview
     id="namedview832"
     pagecolor="#ffffff"
     bordercolor="#666666"
     borderopacity="1.0"
     inkscape:pageshadow="2"
     inkscape:pageopacity="0.0"
     inkscape:pagecheckerboard="0"
     showgrid="false"
     inkscape:zoom="3.447205"
     inkscape:cx="177.24504"
     inkscape:cy="46.559459"
     inkscape:window-width="1463"
     inkscape:window-height="1205"
     inkscape:window-x="0"
     inkscape:window-y="25"
     inkscape:window-maximized="0"
     inkscape:current-layer="svg830"
     inkscape:showpageshadow="2"
     inkscape:deskcolor="#d1d1d1" />
  <path
     d="m 104.57257,49.00861 c -1.96936,2.226234 -4.5381,3.938722 -7.791824,5.223088 -1.027493,0.428122 -2.311859,0.684996 -3.68185,0.77062 -1.712488,0.08563 -3.424976,0 -5.137464,-0.256873 -0.342498,-0.08562 -0.684995,-0.08562 -0.941868,0 -1.969362,0.428122 -3.767474,0.342498 -5.479962,-0.256873 l -0.256874,-0.684996 c 0.256874,-0.342497 0.513747,-0.59937 0.941869,-0.684995 1.36999,-0.256873 2.568732,-0.342497 3.681849,-0.256873 1.113118,0.08562 2.14061,-0.08562 2.996855,-0.684995 0.428122,-0.171249 0.856244,-0.513747 1.36999,-0.856244 3.596225,-2.91123 6.593079,-6.421831 9.161812,-10.531802 1.027497,-1.626864 1.969357,-3.082479 2.911227,-4.45247 1.96936,-2.911229 3.8531,-5.993708 5.47997,-9.33306 l -6.67871,0.513746 -9.675557,9.846807 c 0.856244,0.342498 1.455615,0.599371 1.883737,0.77062 0.684995,0.256873 1.284366,0.428122 1.626863,0.513746 1.626864,0.428122 2.825606,1.369991 3.510601,2.825606 -2.568732,-1.369991 -5.308713,-2.226235 -8.305567,-2.654357 -3.510601,3.339352 -7.192451,6.336206 -11.131173,9.247436 -1.54124,1.113117 -3.424977,2.397484 -5.82246,3.767474 -0.684995,0.428122 -1.36999,0.856244 -2.054986,1.198742 -3.767474,1.798112 -7.449323,3.168103 -10.874299,4.109971 -3.424977,0.856244 -6.849953,1.455615 -10.189305,1.712488 -2.996854,0.256874 -6.079333,0.171249 -9.247436,-0.171248 0,0.513746 0.08563,1.284366 0.171249,2.311859 0.256873,1.027493 0.513746,1.883737 0.941868,2.654356 2.654357,4.794967 6.678704,7.791821 12.073042,9.161812 3.339352,0.856244 6.593079,1.198741 10.018056,1.198741 2.996854,0 5.908084,-0.256873 8.648065,-0.856244 1.284366,-0.342497 2.226234,-0.59937 2.911229,-0.856244 2.654357,-0.770619 5.05184,-1.969361 7.106826,-3.5106 1.113118,-0.77062 2.054986,-1.712488 2.739981,-2.739981 0.684996,-0.941869 1.027493,-2.054986 1.113118,-3.253728 0,-0.342497 -0.08563,-0.770619 -0.256874,-1.198742 -0.342497,-0.941868 -0.684995,-1.798112 -1.027493,-2.568732 0.77062,0.256873 1.369991,0.599371 1.883737,1.198742 0.428122,0.513746 0.684996,1.284366 0.684996,2.311859 0,1.969361 -0.77062,3.681849 -2.226235,5.223089 -4.024347,4.024347 -10.274929,6.336206 -18.666121,6.935577 -2.568732,0.171249 -4.966215,0.171249 -7.278074,-0.08562 -0.77062,-0.08562 -1.712488,-0.171248 -2.91123,-0.428122 C 53.283547,73.582814 50.286693,72.640946 47.803585,71.185331 45.320477,69.729716 43.43674,68.017228 42.152374,65.962242 40.868008,63.907256 40.097389,61.424149 39.92614,58.512919 39.412393,58.427294 39.069896,58.256046 38.813022,58.256046 34.617426,57.399802 30.935577,55.516065 27.767474,52.51921 27.253728,52.091088 26.825605,51.491717 26.397483,50.806722 24.77062,48.23799 24,45.583633 24,42.843652 c 0,-2.14061 0.428122,-4.28122 1.455615,-6.507455 0.428122,-1.198741 1.113117,-2.226234 1.798113,-3.168103 3.339351,-4.28122 7.534947,-7.363699 12.415538,-9.418684 5.137465,-2.054986 10.274929,-3.082479 15.583643,-2.91123 1.969361,0 3.5106,0.08562 4.794966,0.256873 3.68185,0.428122 7.106826,1.626864 10.360554,3.510601 1.198741,0.770619 2.14061,1.626863 2.911229,2.739981 1.198742,1.798112 1.798113,3.767474 1.798113,5.908084 0,0.770619 -0.08562,1.541239 -0.256873,2.397483 l 13.186158,1.027493 9.076188,-8.819314 C 92.242652,27.345635 88.047056,26.575015 84.450831,25.547522 81.368353,24.691278 78.885245,22.893165 76.915884,20.324433 75.802766,18.868818 75.28902,17.327579 75.28902,15.700715 c 0,-1.027493 0.256873,-2.14061 0.770619,-3.339352 0.171249,-0.342497 0.342498,-0.684995 0.599371,-1.113117 1.798113,-2.4831077 4.366845,-4.024347 7.620573,-4.6237179 1.455614,-0.2568732 2.654356,-0.428122 3.767473,-0.428122 2.91123,-0.1712488 5.565587,0.6849953 7.877446,2.5687322 0.941868,0.7706197 1.455615,1.6268637 1.455615,2.6543567 0,0.256873 0,0.513746 -0.08562,0.77062 C 95.753253,9.2788848 93.441394,7.652021 90.358915,7.223899 89.759545,6.8814014 89.074549,6.8814014 88.389554,6.8814014 c -2.311859,0 -4.623718,0.5993708 -6.764328,1.7124881 -2.483108,1.2843661 -3.853098,3.5106005 -4.195596,6.5074545 -0.08562,0.599371 -0.08562,1.113118 0,1.455615 0.342498,1.798113 1.113117,3.424977 2.483108,4.794967 1.36999,1.369991 2.996854,2.397484 4.880591,3.168103 4.28122,1.626864 8.648065,2.397484 13.271783,2.311859 3.510598,-3.424976 6.764328,-6.42183 9.761188,-9.076187 3.85309,-3.510601 8.30556,-6.336206 13.27178,-8.5624407 1.71249,-0.7706196 3.25373,-1.2843661 4.79496,-1.7124881 2.56874,-0.6849952 5.13747,-0.7706197 7.62058,-0.3424976 2.05498,0.3424976 3.25372,1.5412393 3.59622,3.5962254 0.0856,0.513746 0.0856,1.113117 -0.0856,1.883737 -0.3425,2.14061 -2.31186,4.366844 -6.07934,6.849952 -5.56558,3.68185 -11.73054,5.993709 -18.49487,6.935577 -1.36999,2.226235 -2.39748,3.853098 -3.1681,4.966216 -2.05499,3.339352 -3.76747,6.079333 -5.30871,8.305567 -2.82561,4.024347 -6.250586,7.534948 -10.446181,10.531802 -1.883737,1.369991 -3.168104,2.311859 -4.024348,2.825606 0.08562,0.08562 0.08562,0.08562 0.171249,0.08562 2.226235,0.342498 4.538094,0.342498 7.021202,-0.08562 2.911229,-1.027493 5.479958,-2.654357 7.706198,-4.880591 z M 73.490907,29.571869 C 72.463414,27.773757 70.836551,26.403766 68.867189,25.633147 65.699086,24.34878 62.188486,23.663785 58.335387,23.492536 45.662975,22.893165 35.987417,25.89002 29.223089,32.568723 c -2.91123,2.825606 -4.366845,6.164958 -4.366845,9.932432 0,1.626863 0.256873,3.168103 0.856244,4.794966 1.284366,3.596226 3.596225,6.164958 6.935577,7.706197 2.311859,1.027493 4.709343,1.798113 7.19245,2.14061 0.256874,-1.626863 0.77062,-3.5106 1.54124,-5.479962 0.59937,-1.626863 1.455615,-3.082478 2.568732,-4.452469 -2.91123,-1.36999 -4.794967,-3.339352 -5.651211,-5.908084 -0.08562,-0.342498 -0.171249,-0.77062 -0.171249,-1.113117 0,-0.77062 0.256873,-1.455615 0.856244,-2.054986 v -0.08562 0.08562 c 0.08563,0.171249 0.08563,0.342498 0.08563,0.599371 0,0.256873 0,0.513746 -0.08563,0.684995 -0.428122,2.311859 0.77062,4.195596 3.68185,5.565587 0.684995,0.342497 1.626863,0.684995 2.654356,0.856244 6.849953,-6.079333 16.354262,-9.50431 28.512928,-10.274929 0.342498,-0.77062 0.513746,-1.626864 0.513746,-2.739981 0.08563,-1.113118 -0.256873,-2.226235 -0.856244,-3.253728 z M 62.530983,46.782375 c -3.253727,1.027493 -6.507455,1.626864 -9.761182,1.798113 -2.739981,0.08562 -5.223089,-0.256874 -7.620572,-0.941869 -2.825606,2.91123 -4.281221,6.079333 -4.281221,9.589934 v 0.08562 c 2.226235,0.342498 4.366845,0.513747 6.507455,0.513747 4.452469,0 8.819314,-0.684996 13.100534,-2.140611 3.938723,-1.284366 7.620573,-2.996854 10.959925,-5.137464 5.479962,-3.510601 10.360553,-7.363699 14.470524,-11.644919 0.342498,-0.342498 0.684996,-0.599371 0.856244,-0.856244 -3.853098,-0.941869 -7.963069,-1.198742 -12.24429,-0.941869 -2.825605,4.709342 -6.849952,7.96307 -11.987417,9.675558 z m -4.880591,-6.849953 c -4.109972,1.369991 -7.791821,3.424977 -11.045549,5.993709 1.198742,0.513746 2.654357,0.856244 4.195596,0.856244 3.596226,0 7.192451,-0.513746 10.959925,-1.455615 5.137464,-1.36999 8.904938,-4.109971 11.47367,-8.134319 -4.623718,-0.171248 -9.761182,0.77062 -15.583642,2.739981 z M 108.34004,26.061269 c 2.82561,-4.281221 6.42183,-8.562441 10.8743,-12.929286 2.31186,-2.226234 4.79497,-3.8530982 7.7062,-4.7949667 1.28436,-0.4281221 2.39748,-0.3424976 3.5106,0.2568732 0.0856,0.085624 0.17125,0.2568732 0.17125,0.428122 -1.28437,-0.2568732 -2.65436,0 -4.02435,0.6849953 -4.02435,2.0549862 -7.19245,5.0518402 -9.41869,8.9049382 -0.59937,1.027493 -1.11311,1.883737 -1.54123,2.568732 -0.77062,1.198742 -1.54124,2.568733 -2.31186,3.938723 6.84995,-1.284366 13.01491,-3.853098 18.40924,-7.96307 1.28437,-0.941868 2.31186,-1.969361 3.16811,-3.082478 0.94187,-1.198742 1.45561,-2.226235 1.45561,-3.168104 0,-0.428122 -0.0856,-0.856244 -0.25687,-1.2843656 -0.59937,-1.1987417 -1.62686,-1.9693614 -2.99686,-2.2262346 -1.45561,-0.3424976 -3.33935,-0.2568732 -5.65121,0.3424976 -3.33935,0.7706197 -6.59308,2.2262346 -9.58993,4.1955956 -2.65436,1.712489 -5.05184,3.68185 -7.19245,5.736836 -2.8256,2.825605 -4.96622,5.05184 -6.33621,6.507455 -0.94186,0.941868 -1.62686,1.712488 -2.14061,2.14061 z"
     fill="#fff"
     id="path824"
     style="fill:#800000;stroke-width:0.856244" />
  <path
     d="m 104.40132,56.886055 7.53495,-11.216797 c 1.02749,-1.712488 1.54124,-2.654357 1.54124,-2.996854 0,-0.513747 -0.25688,-0.77062 -0.77062,-0.77062 -1.0275,0 -3.25373,1.798112 -6.50746,5.308713 -0.51375,0.513747 -0.94187,1.027493 -1.36999,1.541239 -0.59937,0.77062 -1.02749,1.198742 -1.28437,1.198742 -0.17125,0 -0.25687,-0.08562 -0.25687,-0.256873 0,-0.342498 0.42812,-0.941869 1.28437,-1.883737 l 1.79811,-1.969361 c 2.99685,-3.253728 5.13746,-4.880592 6.59308,-4.880592 1.45561,0 2.14061,0.856244 2.14061,2.654357 0,1.626864 -0.77062,3.596225 -2.22623,5.993708 4.53809,-5.736835 7.79182,-8.648065 9.67555,-8.648065 1.45562,0 2.22624,0.77062 2.22624,2.311859 0,1.883737 -0.77062,3.938723 -2.31186,6.164958 5.05184,-5.651211 8.30557,-8.562441 9.8468,-8.562441 1.37,0 2.05499,0.941868 2.05499,2.739981 0,1.369991 -0.94187,3.339352 -2.73998,5.82246 -0.17125,0.256873 -0.42812,0.513746 -0.685,0.941868 -1.71248,2.311859 -2.56873,3.853098 -2.56873,4.709343 0,0.684995 0.25688,1.027492 0.85625,1.027492 0.94186,0 2.91123,-1.626863 5.9937,-4.794966 1.62687,-1.712489 2.48311,-2.568733 2.56874,-2.568733 0.25687,0 0.34249,0.08563 0.34249,0.256874 0,0.342497 -0.77062,1.284366 -2.39748,2.911229 l -0.3425,0.342498 c -3.08248,3.082479 -5.22309,4.709342 -6.25058,4.709342 -1.79811,0 -2.65435,-1.284366 -2.65435,-3.938722 0,-1.54124 1.19874,-3.853099 3.59622,-6.849953 0.17125,-0.171249 0.42812,-0.513746 0.85624,-1.027493 1.11312,-1.284366 1.62687,-2.226234 1.62687,-2.654356 0,-0.428122 -0.25688,-0.684996 -0.59937,-0.684996 -1.71249,0 -6.33621,4.794967 -13.87116,14.55615 l -3.85309,0.342497 7.19245,-10.874299 c 1.19874,-1.712489 1.71248,-2.91123 1.71248,-3.424977 0,-0.428122 -0.25687,-0.684995 -0.77062,-0.684995 -1.45561,0 -5.56558,4.195596 -12.32991,12.586788 l -1.62686,2.054986 z"
     fill="#fff"
     id="path826"
     style="fill:#800000;stroke-width:0.856244" />
  <path
     d="m 150.03913,51.748591 c 0.0856,0 0.17125,0 0.25687,0.08562 0.25687,0.08562 0.51375,0.08562 0.685,0.08562 0.68499,0 1.54124,-0.256873 2.31185,-0.684995 0.94187,-0.513746 1.71249,-1.113117 2.31186,-1.798112 l 0.685,-0.856244 c 0.0856,-0.08563 0.25687,-0.171249 0.42812,-0.171249 0.17125,0 0.25687,0.08562 0.25687,0.342497 0,0.171249 0,0.256874 -0.0856,0.256874 l -0.59937,0.770619 c -1.62686,1.883737 -3.5106,2.91123 -5.65121,2.91123 -0.42812,0 -0.85625,0 -1.28437,-0.08562 -2.73998,2.996854 -5.22309,4.452469 -7.3637,4.452469 -2.4831,0 -3.68185,-1.969361 -3.68185,-5.82246 0,-0.684995 0.17125,-1.541239 0.42813,-2.568732 -0.59938,0.77062 -1.0275,1.113117 -1.19875,1.113117 -0.17125,0 -0.25687,-0.08562 -0.25687,-0.256873 0,-0.256873 0.77062,-1.198742 2.31186,-2.825605 3.5106,-3.853099 6.76433,-5.82246 9.76118,-5.82246 2.56873,0 3.8531,1.36999 3.8531,4.024347 -0.17125,1.969361 -1.19874,4.195596 -3.1681,6.849953 z m -9.33306,2.483107 c 0,1.284367 0.59937,1.969362 1.71248,1.969362 1.45562,0 3.16811,-1.113117 5.22309,-3.339352 2.65436,-2.825605 3.93873,-5.565587 3.93873,-8.134319 0,-1.883737 -0.685,-2.825605 -2.14061,-2.825605 -1.62687,0 -3.59623,1.541239 -5.65121,4.538093 -2.05499,2.91123 -3.08248,5.565587 -3.08248,7.791821 z M 98.750107,82.659002 h 11.987413 c 0.51375,0 0.85625,-0.08563 1.0275,-0.256874 0.17125,-0.171248 0.3425,-0.428122 0.51374,-0.856244 h 0.51375 v 4.109972 h -0.51375 c -0.0856,-0.428122 -0.25687,-0.77062 -0.51374,-0.856244 -0.25688,-0.08562 -0.51375,-0.256873 -1.0275,-0.256873 H 95.068258 v -0.513747 c 0.428122,-0.08562 0.77062,-0.256873 0.856244,-0.513746 0.08562,-0.256874 0.256873,-0.513747 0.256873,-1.027493 V 66.818486 c 0,-0.513746 -0.08562,-0.856244 -0.256873,-1.027493 -0.171249,-0.171248 -0.428122,-0.342497 -0.856244,-0.513746 v -0.513746 h 4.794967 v 0.513746 c -0.428122,0.08562 -0.77062,0.256873 -0.856244,0.513746 -0.08562,0.256874 -0.256874,0.513747 -0.256874,1.027493 z m 30.482293,-3.68185 h -10.36056 l -1.45561,3.339352 c -0.17125,0.428122 -0.25688,0.684995 -0.25688,0.941868 0,0.428122 0.3425,0.684996 0.94187,0.856245 v 0.513746 h -4.88059 v -0.513746 c 0.42812,-0.08562 0.85625,-0.256874 1.11312,-0.513747 0.25687,-0.256873 0.59937,-0.856244 0.94187,-1.626864 l 6.50745,-14.128027 c 0.3425,-0.770619 0.51375,-1.284366 0.51375,-1.626864 0,-0.428122 -0.25687,-0.684995 -0.85625,-0.770619 v -0.513747 h 5.73684 v 0.513747 c -0.59937,0.171249 -0.85624,0.342497 -0.85624,0.770619 0,0.256874 0.25687,0.856245 0.68499,1.883737 l 6.25058,13.614281 c 0.42813,0.941869 0.77062,1.541239 1.11312,1.883737 0.3425,0.342498 0.685,0.513747 1.19874,0.599371 v 0.513746 h -5.13746 v -0.513746 c 0.51374,-0.08562 0.85624,-0.342498 0.85624,-0.599371 0,-0.171249 -0.17125,-0.513746 -0.42812,-1.198742 z m -0.85625,-1.883737 -4.28122,-9.675558 -4.36684,9.675558 z m 18.15238,-10.189304 v 15.669266 c 0,0.513747 0.0856,0.856244 0.25687,1.027493 0.17125,0.171249 0.42812,0.342498 0.94187,0.513747 v 0.513746 h -4.79497 v -0.513746 c 0.42812,-0.08562 0.77062,-0.256874 0.85625,-0.513747 0.0856,-0.256873 0.25687,-0.513746 0.25687,-1.027493 V 66.904111 h -6.42183 c -0.51375,0 -0.85625,0.08562 -1.02749,0.256873 -0.17125,0.171249 -0.3425,0.428122 -0.51375,0.856244 h -0.51375 v -4.195596 h 0.51375 c 0.0856,0.428122 0.25687,0.77062 0.51375,0.856244 0.25687,0.08563 0.51374,0.256873 1.02749,0.256873 h 15.32677 c 0.51374,0 0.85624,-0.08562 1.02749,-0.256873 0.17125,-0.171249 0.3425,-0.428122 0.51375,-0.856244 h 0.51374 v 4.195596 h -0.51374 c -0.0856,-0.428122 -0.25688,-0.77062 -0.51375,-0.856244 -0.25687,-0.08562 -0.51375,-0.256873 -1.02749,-0.256873 z m 11.90179,15.669266 V 66.818486 c 0,-0.513746 -0.0856,-0.856244 -0.25687,-1.027493 -0.17125,-0.171248 -0.42813,-0.342497 -0.85625,-0.513746 v -0.513746 h 4.79497 v 0.513746 c -0.42812,0.08562 -0.77062,0.256873 -0.85625,0.513746 -0.0856,0.256874 -0.25687,0.599371 -0.25687,1.027493 v 15.669267 c 0,0.513746 0.0856,0.856244 0.25687,1.027493 0.17125,0.171248 0.42813,0.342497 0.85625,0.513746 v 0.513747 h -4.79497 v -0.513747 c 0.42812,-0.08562 0.77062,-0.256873 0.85625,-0.513746 0.0856,-0.256874 0.25687,-0.513747 0.25687,-0.941869 z m 11.13117,-14.641773 v 14.641773 c 0,0.513747 0.0856,0.856244 0.25688,1.027493 0.17124,0.171249 0.42812,0.342498 0.94186,0.513747 v 0.513746 h -4.36684 v -0.513746 c 0.42812,-0.08562 0.77062,-0.256874 0.94187,-0.513747 0.17125,-0.256873 0.25687,-0.513746 0.25687,-1.027493 V 66.818486 c 0,-0.513746 -0.0856,-0.856244 -0.25687,-1.027493 -0.17125,-0.171248 -0.42812,-0.342497 -0.85625,-0.513746 v -0.513746 h 6.42183 v 0.513746 c -0.59937,0.171249 -0.94186,0.513746 -0.94186,0.941868 0,0.342498 0.25687,0.77062 0.68499,1.284367 l 11.47367,13.014909 V 66.818486 c 0,-0.513746 -0.0856,-0.856244 -0.25687,-1.027493 -0.17125,-0.171248 -0.42812,-0.342497 -0.85625,-0.513746 v -0.513746 h 4.36685 v 0.513746 c -0.42812,0.08562 -0.77062,0.256873 -0.85625,0.513746 -0.0856,0.256874 -0.25687,0.513747 -0.25687,1.027493 v 15.669267 c 0,0.513746 0.0856,0.856244 0.25687,1.027493 0.17125,0.171248 0.42813,0.342497 0.94187,0.513746 v 0.513747 h -5.13746 v -0.513747 c 0.59937,-0.171249 0.94187,-0.428122 0.94187,-0.684995 0,-0.256873 -0.25688,-0.684995 -0.85625,-1.284366 z m 35.96225,11.045548 h -10.36055 l -1.45562,3.339352 c -0.17124,0.428122 -0.25687,0.684995 -0.25687,0.941868 0,0.428122 0.3425,0.684996 0.94187,0.856245 v 0.513746 h -4.88059 v -0.513746 c 0.42812,-0.08562 0.85624,-0.256874 1.11312,-0.513747 0.25687,-0.256873 0.59937,-0.856244 0.94186,-1.626864 l 6.50746,-14.128027 c 0.3425,-0.770619 0.51375,-1.284366 0.51375,-1.626864 0,-0.428122 -0.25688,-0.684995 -0.85625,-0.770619 v -0.513747 h 5.73684 v 0.513747 c -0.59937,0.171249 -0.85625,0.342497 -0.85625,0.770619 0,0.256874 0.25688,0.856245 0.685,1.883737 l 6.25058,13.614281 c 0.42812,0.941869 0.77062,1.541239 1.11312,1.883737 0.3425,0.342498 0.68499,0.513747 1.19874,0.599371 v 0.513746 h -5.13747 v -0.513746 c 0.51375,-0.08562 0.85625,-0.342498 0.85625,-0.599371 0,-0.171249 -0.17125,-0.513746 -0.42812,-1.198742 z m -0.85624,-1.883737 -4.28122,-9.675558 -4.36685,9.675558 z m 11.98742,4.024347 c 0.51374,0 1.02749,0.171249 1.36999,0.599371 0.34249,0.428122 0.51374,0.856244 0.51374,1.369991 0,0.513746 -0.17125,0.941868 -0.59937,1.36999 -0.42812,0.428122 -0.85624,0.599371 -1.36999,0.599371 -0.51374,0 -0.94187,-0.171249 -1.36999,-0.599371 -0.3425,-0.342497 -0.59937,-0.856244 -0.59937,-1.36999 0,-0.513747 0.17125,-0.941869 0.51375,-1.369991 0.59937,-0.428122 1.02749,-0.599371 1.54124,-0.599371 z m 28.17043,-14.813022 -2.22624,3.767474 -0.42812,-0.256873 c 0.0856,-0.342498 0.0856,-0.513747 0.0856,-0.684996 0,-0.256873 -0.25687,-0.513746 -0.68499,-0.856244 -1.88374,-1.198741 -4.10997,-1.798112 -6.67871,-1.798112 -2.4831,0 -4.53809,0.684995 -6.25058,2.054985 -1.88373,1.54124 -2.8256,3.510601 -2.8256,5.993709 0,2.654357 1.02749,4.880591 3.08248,6.42183 1.62686,1.284367 3.59622,1.883737 5.82246,1.883737 2.56873,0 4.79496,-0.770619 6.6787,-2.226234 0.77062,-0.599371 1.11312,-1.027493 1.11312,-1.284366 0,-0.171249 -0.0856,-0.513747 -0.25688,-0.856244 l 0.42813,-0.256874 2.73998,3.510601 -0.3425,0.342498 c -0.42812,-0.342498 -0.685,-0.513747 -0.85625,-0.513747 -0.0856,0 -0.25687,0.08562 -0.42812,0.256874 -1.45561,1.113117 -2.91123,1.969361 -4.36684,2.483107 -1.45562,0.513747 -3.08248,0.77062 -4.88059,0.77062 -3.16811,0 -5.73684,-0.856244 -7.7062,-2.568732 -1.02749,-0.856244 -1.79811,-1.883737 -2.48311,-2.996854 -0.77062,-1.455615 -1.19874,-3.082479 -1.19874,-4.794967 0,-3.253728 1.28437,-5.82246 3.76747,-7.791821 2.05499,-1.626864 4.70935,-2.483108 7.87745,-2.483108 2.82561,0 5.47996,0.684995 8.04869,2.054986 0.25688,0.08562 0.42813,0.171248 0.51375,0.171248 0.25687,0 0.51375,-0.171248 0.85624,-0.59937 z m 15.66926,-1.883737 c 3.5106,0 6.33621,0.941868 8.47682,2.739981 2.31186,1.969361 3.42497,4.452469 3.42497,7.620572 0,1.969362 -0.59937,3.767474 -1.71248,5.479962 -2.14061,3.082479 -5.47997,4.709343 -10.18931,4.709343 -3.5106,0 -6.25058,-0.941869 -8.39119,-2.739981 -2.31186,-1.969362 -3.42498,-4.45247 -3.42498,-7.534948 0,-2.054986 0.51375,-3.938723 1.62687,-5.565587 1.19874,-1.712488 2.8256,-2.996854 4.96621,-3.853098 1.54124,-0.513746 3.25373,-0.77062 5.22309,-0.856244 z m 0,2.054986 c -2.8256,0 -5.13746,0.856244 -6.93557,2.654356 -1.54124,1.54124 -2.31186,3.424977 -2.31186,5.565587 0,2.14061 0.77062,4.024347 2.31186,5.565586 1.71248,1.798113 4.02434,2.654357 6.93557,2.654357 2.91123,0 5.22309,-0.856244 6.93558,-2.654357 1.54124,-1.541239 2.31186,-3.339352 2.31186,-5.479962 0,-2.311859 -0.77062,-4.195596 -2.31186,-5.651211 -1.71249,-1.712488 -4.02435,-2.654356 -6.93558,-2.654356 z m 27.22856,18.06675 -8.39119,-16.611135 v 14.556149 c 0,0.513746 0.0856,0.856244 0.25688,1.027493 0.17124,0.171248 0.42812,0.342497 0.85624,0.513746 v 0.513747 h -4.36685 v -0.513747 c 0.42813,-0.08562 0.77062,-0.256873 0.85625,-0.513746 0.0856,-0.256874 0.25687,-0.513747 0.25687,-1.027493 V 66.818486 c 0,-0.513746 -0.0856,-0.856244 -0.25687,-1.027493 -0.17125,-0.171248 -0.42812,-0.342497 -0.85625,-0.513746 v -0.513746 h 5.99371 v 0.513746 c -0.59937,0.171249 -0.85624,0.428122 -0.85624,0.77062 0,0.171248 0.17125,0.513746 0.42812,1.113117 l 6.25058,12.586788 6.25058,-12.586788 c 0.25688,-0.599371 0.42813,-0.941869 0.42813,-1.113117 0,-0.342498 -0.25688,-0.599371 -0.85625,-0.77062 v -0.513746 h 5.99371 v 0.513746 c -0.42812,0.08562 -0.77062,0.256873 -0.85624,0.513746 -0.17125,0.171249 -0.25688,0.513747 -0.25688,1.027493 v 15.669267 c 0,0.513746 0.0856,0.856244 0.25688,1.027493 0.17125,0.171248 0.42812,0.342497 0.85624,0.513746 v 0.513747 h -4.79497 v -0.513747 c 0.42813,-0.08562 0.77062,-0.256873 0.85625,-0.513746 0.0856,-0.256874 0.25687,-0.513747 0.25687,-1.027493 V 67.931604 Z"
     fill="#fff"
     id="path828"
     style="fill:#800000;stroke-width:0.856244" />
</svg>
